<?xml version="1.0" encoding="UTF-8" standalone="no"?>
<!DOCTYPE svg PUBLIC "-//W3C//DTD SVG 1.1//EN"
 "http://www.w3.org/Graphics/SVG/1.1/DTD/svg11.dtd">
<!-- Generated by graphviz version 2.40.1 (20161225.0304)
 -->
<!-- Title: resource provider tree Pages: 1 -->
<svg width="295pt" height="197pt"
 viewBox="0.00 0.00 295.00 197.00" xmlns="http://www.w3.org/2000/svg" xmlns:xlink="http://www.w3.org/1999/xlink">
<g id="graph0" class="graph" transform="scale(1 1) rotate(0) translate(4 193)">
<title>resource provider tree</title>
<!-- host -->
<g id="node1" class="node">
<title>host</title>
<polygon fill="none" stroke="#000000" points="124.5,-150.5 124.5,-188.5 195.5,-188.5 195.5,-150.5 124.5,-150.5"/>
<text text-anchor="middle" x="160" y="-173.3" font-family="Times,serif" font-size="14.00" fill="#000000">devstack0</text>
<text text-anchor="middle" x="160" y="-158.3" font-family="Times,serif" font-size="14.00" fill="#000000">3b36d91e</text>
</g>
<!-- agent_ovs -->
<g id="node2" class="node">
<title>agent_ovs</title>
<polygon fill="none" stroke="#000000" points="27,-75.5 27,-113.5 155,-113.5 155,-75.5 27,-75.5"/>
<text text-anchor="middle" x="91" y="-98.3" font-family="Times,serif" font-size="14.00" fill="#000000">Open vSwitch agent</text>
<text text-anchor="middle" x="91" y="-83.3" font-family="Times,serif" font-size="14.00" fill="#000000">89ca1421</text>
</g>
<!-- host&#45;&gt;agent_ovs -->
<g id="edge1" class="edge">
<title>host&#45;&gt;agent_ovs</title>
<path fill="none" stroke="#000000" d="M142.2308,-150.1856C131.9288,-138.9878 119.0007,-124.9355 108.709,-113.7489"/>
</g>
<!-- agent_sriov -->
<g id="node3" class="node">
<title>agent_sriov</title>
<polygon fill="none" stroke="#000000" points="173,-75.5 173,-113.5 287,-113.5 287,-75.5 173,-75.5"/>
<text text-anchor="middle" x="230" y="-98.3" font-family="Times,serif" font-size="14.00" fill="#000000">NIC Switch agent</text>
<text text-anchor="middle" x="230" y="-83.3" font-family="Times,serif" font-size="14.00" fill="#000000">4a8a819d</text>
</g>
<!-- host&#45;&gt;agent_sriov -->
<g id="edge2" class="edge">
<title>host&#45;&gt;agent_sriov</title>
<path fill="none" stroke="#000000" d="M178.0267,-150.1856C188.478,-138.9878 201.5935,-124.9355 212.0343,-113.7489"/>
</g>
<!-- pnic_br_test -->
<g id="node4" class="node">
<title>pnic_br_test</title>
<polygon fill="none" stroke="#000000" points="0,-.5 0,-38.5 66,-38.5 66,-.5 0,-.5"/>
<text text-anchor="middle" x="33" y="-23.3" font-family="Times,serif" font-size="14.00" fill="#000000">br&#45;test</text>
<text text-anchor="middle" x="33" y="-8.3" font-family="Times,serif" font-size="14.00" fill="#000000">f9c9ce07</text>
</g>
<!-- agent_ovs&#45;&gt;pnic_br_test -->
<g id="edge3" class="edge">
<title>agent_ovs&#45;&gt;pnic_br_test</title>
<path fill="none" stroke="#000000" d="M76.0636,-75.1856C67.4039,-63.9878 56.5368,-49.9355 47.8858,-38.7489"/>
</g>
<!-- pnic_br_ex -->
<g id="node5" class="node">
<title>pnic_br_ex</title>
<polygon fill="none" stroke="#000000" points="84,-.5 84,-38.5 152,-38.5 152,-.5 84,-.5"/>
<text text-anchor="middle" x="118" y="-23.3" font-family="Times,serif" font-size="14.00" fill="#000000">br&#45;ex</text>
<text text-anchor="middle" x="118" y="-8.3" font-family="Times,serif" font-size="14.00" fill="#000000">193134fd</text>
</g>
<!-- agent_ovs&#45;&gt;pnic_br_ex -->
<g id="edge4" class="edge">
<title>agent_ovs&#45;&gt;pnic_br_ex</title>
<path fill="none" stroke="#000000" d="M97.9532,-75.1856C101.9844,-63.9878 107.0432,-49.9355 111.0704,-38.7489"/>
</g>
<!-- pnic_ens5 -->
<g id="node6" class="node">
<title>pnic_ens5</title>
<polygon fill="none" stroke="#000000" points="196.5,-.5 196.5,-38.5 263.5,-38.5 263.5,-.5 196.5,-.5"/>
<text text-anchor="middle" x="230" y="-23.3" font-family="Times,serif" font-size="14.00" fill="#000000">ens5</text>
<text text-anchor="middle" x="230" y="-8.3" font-family="Times,serif" font-size="14.00" fill="#000000">1c7e83f0</text>
</g>
<!-- agent_sriov&#45;&gt;pnic_ens5 -->
<g id="edge5" class="edge">
<title>agent_sriov&#45;&gt;pnic_ens5</title>
<path fill="none" stroke="#000000" d="M230,-75.1856C230,-63.9878 230,-49.9355 230,-38.7489"/>
</g>
</g>
</svg>
